<svg xmlns="http://www.w3.org/2000/svg" viewBox="0 0 840.26 192.44"><defs><style>.cls-1{fill:#d93627;}</style></defs><title>cityDataGroup</title><g id="Layer_2" data-name="Layer 2"><g id="Layer_1-2" data-name="Layer 1"><path class="cls-1" d="M96.22,0a96.22,96.22,0,1,0,96.22,96.22A96.22,96.22,0,0,0,96.22,0Zm57.43,111.52c0,22.71-23.76,55.5-51.61,55.5h-.18l-.05-18.5c18.25-2.8,30.41-22.53,30.41-22.53h-72s12.16,19.73,30.41,22.53L90.58,167h-.18c-27.84,0-51.61-32.79-51.61-55.5V96.22H76.06l20.16,20.05,20.16-20.05h37.27ZM142,89.35A97.7,97.7,0,0,0,138,63.43L96.22,106,54.46,63.43A97.68,97.68,0,0,0,50.4,89.35l-11.61-.15C38.69,77.93,45,52.07,49,41L96.22,89.64,143.49,41c3.94,11.09,10.27,36.95,10.17,48.23Z"/><path class="cls-1" d="M284.32,111.67q-6.36,1.89-12,3.53V78.73h12.27V70.55H272.28V42.94h-8.52v27.6h-13v8.18h13v38.85q-7.61,2-14,3.52l1.59,9.77q14.77-5,33.17-10.34Q284.32,116.89,284.32,111.67Z"/><path class="cls-1" d="M356.57,122.24q-.8,10.91-1.7,15.91-.57,3.18-2.73,3.18t-5.34-4.54a39.28,39.28,0,0,1-5.12-12c.06-.08-2.37-11.84-2.5-11.65Q336.52,97,335.5,70.32h27.77V62.14H335.21q-.23-9.66-.11-20.56h-9q.17,10.79.45,20.56H289V87.7q0,25-2.84,36-3,11.47-12.27,23.4,3.75,3.19,6.93,6.48a73.76,73.76,0,0,0,13.29-26.13q2.9-11.3,3.29-31.69H312q0,13.75-.57,24.77-.34,7.73-6.93,7.72a80.83,80.83,0,0,1-9-.56q1.25,5.12,1.93,8.86,4,.11,8.4.11,13.18,0,13.75-14,.57-14.64.79-34.64H297.5V70.32h29.42q1.53,35.67,5.51,52.77c-.07.09,2.07,7.72,3,10.11A39.67,39.67,0,0,0,340.9,144q5.68,7.61,13,7.61,6.82,0,9-10.34.91-4.88,2-16A82.82,82.82,0,0,1,356.57,122.24Z"/><path class="cls-1" d="M484.76,67.17V58.53H430a6.49,6.49,0,0,1-2.42,0H374.79v8.63H425V82.85H384.45v58.73h8.86V91.25H425v62.14h9.09V91.25h32.38V123.4q0,7.5-7.38,7.5-5.68,0-15.11-.57,1,5.34,1.59,9.09,10,.22,16.25.23,13.52,0,13.52-14.31V82.85H434.09V67.17Z"/><path class="cls-1" d="M513.21,47.46l-7-4.66q-5.68,8.07-11.59,15,3.52,2.5,6.13,4.77Q507,55.64,513.21,47.46Z"/><path class="cls-1" d="M441.13,42.37l-7-4.66q-5.68,8.07-11.59,15,3.52,2.5,6.14,4.77Q434.88,50.55,441.13,42.37Z"/><path class="cls-1" d="M363.15,46.24l-7-4.66q-5.68,8.07-11.59,15,3.52,2.51,6.13,4.77Q356.89,54.42,363.15,46.24Z"/><path class="cls-1" d="M551.7,47.46l-7-4.66q-5.68,8.07-11.59,15,3.52,2.5,6.13,4.77Q545.46,55.64,551.7,47.46Z"/><path class="cls-1" d="M550.93,83.5l-7-4.66q-5.69,8.07-11.59,15,3.52,2.5,6.13,4.77Q544.68,91.68,550.93,83.5Z"/><path class="cls-1" d="M513.7,83l-7-4.66q-5.68,8.07-11.58,15,3.52,2.5,6.14,4.77Q507.44,91.19,513.7,83Z"/><path class="cls-1" d="M520.82,75.85"/><path class="cls-1" d="M546.35,75.89l4.94-7.5h-24V42.94h-8.41V68.39H494.68v7.5h20.06l4.23,0-.11,8.34V98.6h8.41V85.66l.1.07a6.66,6.66,0,0,1,0-3l-.11.13V75.89Z"/><path class="cls-1" d="M583.58,125.28c-.27-.2-6.14-9.72-6.18-9.63Q568.08,98.5,566,74.41a30.89,30.89,0,0,0,1.25-2.84s21.24,0,21.24.05c.34-.06,9.09,0,9.09-.05h7.16V63.84H570a196.28,196.28,0,0,0,5.57-20.56l-9.09-1.36q-4.44,27.27-17.61,46.24a89.6,89.6,0,0,1,5.68,7.27,86.52,86.52,0,0,0,5-7.84q3,20.79,12.16,36.7c-.07.1,5.9,8.65,6,9a88,88,0,0,0,22.59,20.76q2.5-4,6.13-9A72.85,72.85,0,0,1,583.58,125.28Z"/><path class="cls-1" d="M534.79,134.39a53.74,53.74,0,0,0,13.07-19.54v-7.38H520q1.82-3.07,3.64-6.25l-8.18-2.62q-2.38,4.55-4.88,8.86H493.33V115h12.95q-3.41,5.56-7,10.79Q509.92,131,519.69,136q-11.48,7-28.06,10.79,2,4.33,3.86,8,19.54-5.35,32.37-14.54,7.61,4,14.66,7.95l5-7.83Q541,137.34,534.79,134.39ZM527,130.76q-8.52-4-16.59-7.61,2.62-4,5.23-8.17h23.63A48.64,48.64,0,0,1,527,130.76Z"/><path class="cls-1" d="M614.93,102.59q8.06-2.22,15.68-4.49v-26H616.29V64h14.32V42.26H639V64H651.4v8.18H639V95.48q5.4-1.7,10.56-3.46a71.38,71.38,0,0,0,.68,8.86q-5.85,1.87-11.24,3.69v34.37q0,12.83-11.25,13.07c-2.35.07-5.84,0-10.45-.12q-.46-4.54-1.37-9.43a95.29,95.29,0,0,0,9.54.68q5.11,0,5.11-5.8v-30q-7.78,2.62-14.54,5Zm50.89,11.47h23.4V99.63H662.76q-1.26,34.93-16.13,54-2.73-3.52-6.14-7.16,14.2-17.49,14.2-53.73V48.4h67V81.34h-8.18V77.82H662.87V91.9h26.35V80h8.19V91.9h30v7.73h-30v14.42H721v38.41h-8.18v-6.59H674v6.59h-8.18Zm47.72-58.16H662.87V70.32h50.67Zm-.69,65.66H674v16.93h38.85Z"/><path class="cls-1" d="M740.85,47.48V153.59h8.64v-5.68h82.13v5.57h8.64v-106ZM831.62,140H749.49V55.44h82.13Z"/><path class="cls-1" d="M797.88,83.28l-.34,7.22v25q0,10.56-9.32,10.57a111.39,111.39,0,0,1-12.95-.91q1.14,5,1.82,9,6.82.23,13.18.23,15.68,0,15.68-16.47V83.27h21.81V75.55H805.95V59.18h-8.4V75.55H755.05v7.73h42.83Z"/><path class="cls-1" d="M793.47,90.29l-6.95-4.72c-3.29,5.69-27.83,39.81-31.34,44.76,2.45,1.77,4.79,2.72,6.67,4.07C765.56,129.44,789.79,96.11,793.47,90.29Z"/><path class="cls-1" d="M596.83,109.56l-6.95-4.72c-3.29,5.7-27.83,39.81-31.34,44.76,2.45,1.77,4.79,2.71,6.66,4.07C568.92,148.71,593.15,115.39,596.83,109.56Z"/><path class="cls-1" d="M358.56,107.23l-6.95-4.73c-3.29,5.7-27.83,39.81-31.34,44.77,2.45,1.76,4.79,2.71,6.66,4.07C330.65,146.39,354.88,113.06,358.56,107.23Z"/></g></g></svg>