<?xml version="1.0" encoding="utf-8"?>
<!-- Generator: Adobe Illustrator 21.1.0, SVG Export Plug-In . SVG Version: 6.00 Build 0)  -->
<svg version="1.1" id="图层_1" xmlns="http://www.w3.org/2000/svg" xmlns:xlink="http://www.w3.org/1999/xlink" x="0px" y="0px"
	 viewBox="0 0 975.5 152" style="enable-background:new 0 0 975.5 152;" xml:space="preserve">
<style type="text/css">
	.st0{fill:#DCE7EF;}
</style>
<title>datamapFullLogoWhite</title>
<g id="Layer_2">
	<g id="Layer_1-2">
		<path class="st0" d="M76,0C34,0,0,34,0,76s34,76,76,76s76-34,76-76S118,0,76,0z M121.3,88.1c0,17.9-18.8,43.8-40.8,43.8h-0.1
			v-14.6c14.4-2.2,24-17.8,24-17.8H47.6c0,0,9.6,15.6,24,17.8v14.6h-0.1c-22,0-40.8-25.9-40.8-43.8V76h29.4L76,91.8L91.9,76h29.4
			L121.3,88.1z M112.2,70.6c-0.1-6.9-1.2-13.8-3.2-20.5L76,83.7L43,50.1c-2,6.6-3.1,13.5-3.2,20.5l-9.2-0.1
			c-0.1-8.9,4.9-29.3,8-38.1L76,70.8l37.3-38.4c3.1,8.8,8.1,29.2,8,38.1L112.2,70.6z"/>
		<path class="st0" d="M643.4,78v43h-12.7V78h-5.4V66.2h5.4V46.1h12.7v20.1h9.9V78H643.4z"/>
		<path class="st0" d="M732,66.2h12.7v5.1c1.8-2,3.9-3.8,6.2-5.2c2.2-1,4.5-1.5,6.9-1.4c6.2,0,11.1,2.7,14.7,8.1
			c3.7-5.3,9.7-8.3,16.2-8.1c12.4,0,18.5,7.5,18.5,22.5V121h-12.7V90.6c0-5.3-0.6-9-1.9-11.2c-1.3-2.2-3.4-3.3-6.5-3.3
			c-3.5,0-6,1.3-7.6,3.9c-1.6,2.6-2.4,6.9-2.4,12.7v28.3h-12.7V90.8c0-9.8-2.8-14.6-8.4-14.6c-3.6,0-6.2,1.3-7.8,4
			c-1.6,2.7-2.4,6.9-2.5,12.6V121H732V66.2z"/>
		
			<rect x="958.7" y="104.1" transform="matrix(0.7977 -0.6031 0.6031 0.7977 128.3749 604.8289)" class="st0" width="14" height="14"/>
		<path class="st0" d="M533.7,45.3c-4.2-3.9-9.3-6.9-14.8-8.6c-5.1-1.7-12-2.6-20.7-2.6h-18.2V121H493V84.2l0,0V46.5h5.9
			c11.2,0,19.6,2.6,25.4,7.9c6.4,5.9,9.6,13.7,9.6,23.2s-3.2,17.2-9.7,23c-3.1,2.8-6.7,4.9-10.6,6.2c-2.6,0.8-5.3,1.3-8,1.5v12.4
			c4.3-0.2,8.6-0.9,12.7-2.1c5.5-1.8,10.5-4.7,14.8-8.6c9.3-8.3,14-19.1,14-32.4S542.6,53.5,533.7,45.3z"/>
		<path class="st0" d="M601.6,66.2v6.4c-5.1-5.3-10.8-7.9-17.2-7.9c-7.1-0.1-13.8,2.9-18.4,8.2c-4.9,5.5-7.4,12.3-7.4,20.6
			c0,8.4,2.5,15.3,7.4,20.9c4.7,5.4,11.6,8.4,18.8,8.2c1.4,0,2.8-0.1,4.2-0.4v-11.1c-0.9,0.2-1.8,0.2-2.7,0.2
			c-4.1,0.1-8.1-1.8-10.7-5c-2.7-3.3-4.1-7.6-4.1-12.8c-0.1-4.5,1.4-8.9,4.2-12.4c2.6-3.2,6.5-5,10.7-5c4.2-0.1,8.3,1.7,11,4.9
			c2.8,3.3,4.2,7.6,4.2,12.7l0,0V121h12.7V66.2H601.6z"/>
		<path class="st0" d="M703.3,66.2v6.4c-5.1-5.3-10.8-7.9-17.2-7.9c-7.1-0.1-13.8,2.9-18.5,8.2c-4.9,5.5-7.4,12.3-7.4,20.5
			c0,8.4,2.5,15.3,7.4,20.9c4.7,5.4,11.6,8.4,18.8,8.2c1.4,0,2.8-0.1,4.2-0.4v-11.1c-0.9,0.2-1.8,0.2-2.7,0.2
			c-4.1,0.1-8.1-1.8-10.7-5c-2.7-3.3-4.1-7.6-4.1-12.8c-0.1-4.5,1.4-8.9,4.2-12.4c2.6-3.2,6.5-5,10.7-5c4.2-0.1,8.3,1.7,11,4.9
			c2.8,3.3,4.2,7.6,4.2,12.7l0,0V121H716V66.2H703.3z"/>
		<path class="st0" d="M863.6,66.2v6.4c-5.1-5.3-10.8-7.9-17.2-7.9c-7.1-0.1-13.8,2.9-18.5,8.2c-4.9,5.5-7.4,12.3-7.4,20.6
			c0,8.4,2.5,15.3,7.4,20.9c4.7,5.4,11.6,8.4,18.8,8.2c1.4,0,2.8-0.1,4.2-0.4v-11.1c-0.9,0.2-1.8,0.2-2.7,0.2
			c-4.1,0.1-8.1-1.8-10.7-5c-2.7-3.3-4.1-7.6-4.1-12.8c-0.1-4.5,1.4-8.9,4.2-12.4c2.6-3.2,6.5-5,10.7-5c4.2-0.1,8.3,1.7,11,4.9
			c2.8,3.3,4.2,7.6,4.2,12.7l0,0V121h12.7V66.2H863.6z"/>
		<path class="st0" d="M940.6,73c-4.6-5.4-11.5-8.5-18.6-8.3c-6.3,0-12,2.5-17,7.5v-6h-12.7v84.7H905V133l0,0V93.7l0,0
			c0-5.1,1.4-9.3,4.2-12.4c2.8-3.1,6.8-4.9,11-4.7c4.1-0.1,8,1.7,10.7,4.9c2.8,3.2,4.2,7.4,4.2,12.5c0.1,4.4-1.4,8.7-4.3,12.1
			c-2.6,3.1-6.5,4.9-10.6,4.8c-0.9,0-1.7-0.1-2.6-0.2v11.5c1.5,0.3,3.1,0.5,4.6,0.5c7.1,0.2,13.8-2.8,18.5-8.2
			c4.9-5.5,7.4-12.3,7.4-20.6C948.1,85.5,945.6,78.5,940.6,73z"/>
		<path class="st0" d="M189.3,95.8c-0.1-0.1-0.2-0.2-0.3-0.2v21.5l-4.9,12l8.6,3.5l5.7-13.6V101C194.8,100.7,191.5,98.8,189.3,95.8z
			"/>
		<polygon class="st0" points="287.4,34.1 287.4,24.8 240.6,24.8 235.2,18.1 227.9,24 236.2,34.1 		"/>
		<polygon class="st0" points="277.5,76.9 294,62.4 287.9,55.4 273.7,67.8 267.4,52.3 267.4,41.8 231.8,41.8 231.8,51.1 258,51.1 
			258,121.8 246.3,121.8 246.3,131.2 267.4,131.2 267.4,76.9 286.9,123.9 295.4,120.4 		"/>
		<polygon class="st0" points="250.2,59.8 228.5,59.8 228.5,69.2 240.9,69.2 240.9,71.8 226.6,121.4 235.6,123.9 250.2,72.7 		"/>
		<path class="st0" d="M189,66.9v28.9c4.1,7.7,5.3,5.3,9.4,5.2V72.3C194.6,72,191.2,70,189,66.9z"/>
		<path class="st0" d="M189,22.4v45.7c7.4,7.4,5.1,4.6,9.4,4.1V31.8h15.9v90.5h-9.3v9.3h18.7V22.4H189z"/>
		<path class="st0" d="M379.9,133.1V107l-48.2,23.1l-3.9-8.4l52.1-25.1V85.8h-37.4v20.4h-9.4V76.5h46.8v-10h-53.7v-9.4h53.6V48h9.4
			v9.1h53.6v9.4h-53.6v10H436v29.7h-9.4V85.8h-37.4v10.8l52,25.1l-3.9,8.4L389.2,107v26.1H379.9z M385.3,33h-40.1L336,47.2l-8-5.2
			l10-15.3v-9.9h9.4v6.8h38.1L385.3,33z M404.7,16.9v6.8h38.1V33h-40.1l-9.4,14.3l-7.9-5.2l10-15.3v-9.9L404.7,16.9z"/>
		<path class="st0" d="M425.8,37.9l-5.9-3.9c-3.2,4.5-6.4,8.7-9.7,12.5c2,1.4,3.7,2.7,5.1,4C418.8,46.7,422.3,42.5,425.8,37.9z"/>
		<path class="st0" d="M369.3,37.9l-5.9-3.9c-3.2,4.5-6.4,8.7-9.7,12.5c2,1.4,3.7,2.7,5.1,4C362.4,46.7,365.8,42.5,369.3,37.9z"/>
		<path class="st0" d="M214.1,53.4l-5.9-3.9c-3.2,4.5-6.4,8.7-9.7,12.5c2,1.4,3.7,2.7,5.1,4C207.1,62.2,210.6,58,214.1,53.4z"/>
		<path class="st0" d="M214.1,84.9l-5.9-3.9c-3.2,4.5-6.4,8.7-9.7,12.5c2,1.4,3.7,2.7,5.1,4C207.1,93.7,210.6,89.5,214.1,84.9z"/>
	</g>
</g>
</svg>
