<svg xmlns="http://www.w3.org/2000/svg" viewBox="0 0 931.64 201.56"><defs><style>.cls-1{fill:#507eff;}</style></defs><title>datamapShortLogo</title><g id="Layer_2" data-name="Layer 2"><g id="Layer_1-2" data-name="Layer 1"><path class="cls-1" d="M96.22,0a96.22,96.22,0,1,0,96.22,96.22A96.22,96.22,0,0,0,96.22,0Zm57.43,111.52c0,22.71-23.76,55.5-51.61,55.5h-.18l-.05-18.5c18.25-2.8,30.41-22.53,30.41-22.53h-72s12.16,19.73,30.41,22.53L90.58,167h-.18c-27.84,0-51.61-32.79-51.61-55.5V96.22H76.06l20.16,20.05,20.16-20.05h37.27ZM142,89.35A97.7,97.7,0,0,0,138,63.43L96.22,106,54.46,63.43A97.68,97.68,0,0,0,50.4,89.35l-11.61-.15C38.69,77.93,45,52.07,49,41L96.22,89.64,143.49,41c3.94,11.09,10.27,36.95,10.17,48.23Z"/><path class="cls-1" d="M474.43,101.25v59.22H457V101.25h-7.44V85H457V57.31h17.44V85H488v16.27Z"/><path class="cls-1" d="M596.43,85h17.44v7q5-5.27,8.6-7.13A20.88,20.88,0,0,1,632,82.88q12.79,0,20.24,11.16,8.21-11.16,22.24-11.16,25.51,0,25.5,30.93v46.66H682.48V118.54q0-10.85-2.64-15.35t-8.91-4.57q-7.22,0-10.51,5.42t-3.29,17.44v39H639.61v-41.7q0-20.15-11.62-20.15-7.38,0-10.74,5.5t-3.37,17.36v39H596.43Z"/><rect class="cls-1" x="908.53" y="137.12" width="19.25" height="19.25" transform="translate(97.26 583.4) rotate(-37.09)"/><path class="cls-1" d="M323.36,56.22A53.4,53.4,0,0,0,303,44.36q-10.47-3.56-28.52-3.56H249.33V160.48h18.06V109.71h0V57.77h8.14q23.1,0,35,10.93,13.18,12.25,13.18,31.93,0,19.53-13.34,31.7a41,41,0,0,1-14.58,8.61,55,55,0,0,1-11,2.09V160.1a72.06,72.06,0,0,0,17.48-3,56.34,56.34,0,0,0,20.31-11.86q19.31-17,19.3-44.65T323.36,56.22Z"/><path class="cls-1" d="M416.92,85v8.76q-10.47-10.85-23.64-10.85A32.72,32.72,0,0,0,367.85,94.2q-10.15,11.32-10.16,28.29,0,17.29,10.16,28.83,10.23,11.32,25.89,11.32a29.61,29.61,0,0,0,5.8-.6V146.72a23.44,23.44,0,0,1-3.68.34,18.37,18.37,0,0,1-14.66-6.9q-5.67-6.82-5.67-17.67,0-10.15,5.82-17.05A18.59,18.59,0,0,1,396,98.62a19,19,0,0,1,15.11,6.74q5.79,6.87,5.81,17.43h0v37.68h17.5V85Z"/><path class="cls-1" d="M556.91,85v8.76q-10.47-10.85-23.64-10.85A32.72,32.72,0,0,0,507.84,94.2q-10.15,11.32-10.16,28.29,0,17.29,10.16,28.83,10.23,11.32,25.89,11.32a29.61,29.61,0,0,0,5.8-.6V146.72a23.44,23.44,0,0,1-3.68.34,18.37,18.37,0,0,1-14.66-6.9q-5.67-6.82-5.67-17.67,0-10.15,5.82-17.05A18.59,18.59,0,0,1,536,98.62a19,19,0,0,1,15.11,6.74q5.79,6.87,5.81,17.43h0v37.68h17.5V85Z"/><path class="cls-1" d="M777.66,85v8.76Q767.2,82.89,754,82.88A32.72,32.72,0,0,0,728.6,94.2q-10.15,11.32-10.16,28.29,0,17.29,10.16,28.83,10.23,11.32,25.89,11.32a29.61,29.61,0,0,0,5.8-.6V146.72a23.44,23.44,0,0,1-3.68.34,18.37,18.37,0,0,1-14.66-6.9q-5.67-6.82-5.67-17.67,0-10.15,5.82-17.05a18.59,18.59,0,0,1,14.66-6.82,19,19,0,0,1,15.11,6.74q5.79,6.87,5.81,17.43h0v37.68h17.5V85Z"/><path class="cls-1" d="M883.7,94.35A32.63,32.63,0,0,0,858,82.88q-13.1,0-23.41,10.31V85H817.19V201.56h17.44V176.9h0V122.76h0q0-10.57,5.82-17.07a19.48,19.48,0,0,1,15.21-6.51,18.58,18.58,0,0,1,14.69,6.74q5.76,6.66,5.76,17.26,0,10-5.91,16.65a18.45,18.45,0,0,1-14.61,6.66,23.31,23.31,0,0,1-3.56-.33V162a31.12,31.12,0,0,0,6.33.65,32.67,32.67,0,0,0,25.42-11.24q10.15-11.32,10.16-28.29Q893.93,105.75,883.7,94.35Z"/></g></g></svg>