<svg xmlns="http://www.w3.org/2000/svg" viewBox="0 0 975.45 151.97"><defs><style>.cls-1{fill:#fff;}</style></defs><title>datamapFullLogoWhite</title><g id="Layer_2" data-name="Layer 2"><g id="Layer_1-2" data-name="Layer 1"><path class="cls-1" d="M76,0a76,76,0,1,0,76,76A76,76,0,0,0,76,0Zm45.35,88.07c0,17.94-18.77,43.83-40.75,43.83h-.14l0-14.61c14.41-2.21,24-17.79,24-17.79H47.56s9.6,15.58,24,17.79l0,14.61h-.14c-22,0-40.75-25.89-40.75-43.83V76H60.06L76,91.82,91.91,76h29.43Zm-9.17-17.51A77.15,77.15,0,0,0,109,50.09L76,83.71,43,50.09a77.14,77.14,0,0,0-3.2,20.47l-9.17-.11c-.08-8.91,4.92-29.33,8-38.09L76,70.79l37.33-38.43c3.11,8.76,8.11,29.18,8,38.09Z"/><path class="cls-1" d="M643.38,78v43H630.71V78h-5.4V66.22h5.4V46.12h12.67v20.1h9.86V78Z"/><path class="cls-1" d="M732,66.22h12.67v5.07a26.59,26.59,0,0,1,6.25-5.18,15.16,15.16,0,0,1,6.93-1.41q9.29,0,14.7,8.11a19,19,0,0,1,16.16-8.11q18.53,0,18.52,22.46v33.89H794.49V90.6q0-7.88-1.92-11.15t-6.47-3.32q-5.24,0-7.63,3.94t-2.39,12.67v28.32H763.35V90.76q0-14.64-8.44-14.64-5.36,0-7.8,4t-2.45,12.61v28.32H732Z"/><rect class="cls-1" x="958.67" y="104.09" width="13.98" height="13.98" transform="translate(128.37 604.83) rotate(-37.09)"/><path class="cls-1" d="M533.65,45.33a38.78,38.78,0,0,0-14.81-8.61q-7.6-2.59-20.72-2.59H479.89v86.92H493V84.19h0V46.46h5.91q16.77,0,25.39,7.94,9.57,8.9,9.57,23.19t-9.69,23a29.77,29.77,0,0,1-10.59,6.25,39.92,39.92,0,0,1-8,1.52v12.39a52.34,52.34,0,0,0,12.7-2.14A40.92,40.92,0,0,0,533.09,110q14-12.38,14-32.43T533.65,45.33Z"/><path class="cls-1" d="M601.61,66.22v6.36Q594,64.7,584.44,64.7A23.77,23.77,0,0,0,566,72.92q-7.37,8.22-7.38,20.55,0,12.55,7.38,20.94a24.25,24.25,0,0,0,18.8,8.22,21.5,21.5,0,0,0,4.21-.43V111.07a17,17,0,0,1-2.67.25,13.35,13.35,0,0,1-10.65-5q-4.12-5-4.12-12.84a18.54,18.54,0,0,1,4.23-12.39,13.5,13.5,0,0,1,10.65-5,13.83,13.83,0,0,1,11,4.9q4.2,5,4.22,12.66h0v27.37h12.71V66.22Z"/><path class="cls-1" d="M703.28,66.22v6.36q-7.6-7.88-17.17-7.88a23.77,23.77,0,0,0-18.47,8.22q-7.37,8.22-7.38,20.55,0,12.55,7.38,20.94a24.25,24.25,0,0,0,18.8,8.22,21.5,21.5,0,0,0,4.21-.43V111.07a17,17,0,0,1-2.67.25,13.35,13.35,0,0,1-10.65-5q-4.12-5-4.12-12.84a18.54,18.54,0,0,1,4.23-12.39,13.5,13.5,0,0,1,10.65-5,13.83,13.83,0,0,1,11,4.9q4.2,5,4.22,12.66h0v27.37H716V66.22Z"/><path class="cls-1" d="M863.62,66.22v6.36Q856,64.7,846.45,64.7A23.77,23.77,0,0,0,828,72.92q-7.37,8.22-7.38,20.55,0,12.55,7.38,20.94a24.25,24.25,0,0,0,18.8,8.22,21.5,21.5,0,0,0,4.21-.43V111.07a17,17,0,0,1-2.67.25,13.35,13.35,0,0,1-10.65-5q-4.12-5-4.12-12.84a18.54,18.54,0,0,1,4.23-12.39,13.5,13.5,0,0,1,10.65-5,13.83,13.83,0,0,1,11,4.9q4.2,5,4.22,12.66h0v27.37h12.71V66.22Z"/><path class="cls-1" d="M940.63,73A23.7,23.7,0,0,0,922,64.7q-9.51,0-17,7.49v-6H892.33v84.67H905V133h0V93.66h0q0-7.68,4.23-12.4a14.15,14.15,0,0,1,11.05-4.73,13.5,13.5,0,0,1,10.67,4.89q4.18,4.84,4.18,12.53a17.55,17.55,0,0,1-4.29,12.09,13.4,13.4,0,0,1-10.61,4.84,16.93,16.93,0,0,1-2.59-.24v11.5a22.61,22.61,0,0,0,4.6.47,23.73,23.73,0,0,0,18.47-8.16q7.37-8.22,7.38-20.55Q948.07,81.31,940.63,73Z"/><path class="cls-1" d="M189.33,95.84c-.09-.09-.2-.16-.28-.25v21.54l-4.94,11.95,8.57,3.51,5.72-13.64V101A12.59,12.59,0,0,1,189.33,95.84Z"/><polygon class="cls-1" points="287.37 34.13 287.37 24.78 240.62 24.78 235.16 18.15 227.88 24 236.2 34.13 287.37 34.13"/><polygon class="cls-1" points="277.5 76.86 294 62.45 287.89 55.43 273.74 67.77 267.37 52.31 267.37 41.79 231.78 41.79 231.78 51.15 258.02 51.15 258.02 121.8 246.33 121.8 246.33 131.16 267.37 131.16 267.37 76.86 286.86 123.88 295.43 120.38 277.5 76.86"/><polygon class="cls-1" points="250.23 59.85 228.53 59.85 228.53 69.2 240.87 69.2 240.87 71.8 226.59 121.41 235.55 123.88 250.23 72.71 250.23 59.85"/><path class="cls-1" d="M189,66.94v28.9c4.13,7.74,5.28,5.3,9.35,5.16V72.27A12.62,12.62,0,0,1,189,66.94Z"/><path class="cls-1" d="M189,22.44v45.7c7.44,7.44,5.11,4.55,9.35,4.13V31.79h15.85v90.53H204.9v9.35h18.7V22.44Z"/><path class="cls-1" d="M379.86,133.1V107l-48.19,23.12-3.9-8.45L379.86,96.6V85.82H342.45v20.39H333.1V76.47h46.76v-10H326.21V57.12h53.64V48h9.35v9.09h53.65v9.35H389.21v10H436v29.74h-9.35V85.82H389.21V96.6l52,25.07-3.9,8.45L389.21,107V133.1ZM385.31,33H345.18L336,47.25l-8.05-5.2,10-15.33V16.85h9.35v6.75h38.06Zm19.35-16.11v6.75h38.06V33H402.59l-9.35,14.29-7.92-5.2,10-15.33V16.85ZM420,35.17"/><path class="cls-1" d="M425.8,37.93,419.91,34q-4.75,6.75-9.69,12.54,2.94,2.09,5.13,4Q420.58,44.76,425.8,37.93Z"/><path class="cls-1" d="M369.33,37.93,363.44,34q-4.75,6.75-9.69,12.54,2.94,2.09,5.13,4Q364.11,44.76,369.33,37.93Z"/><path class="cls-1" d="M214.11,53.43l-5.89-3.89q-4.75,6.75-9.69,12.54,2.94,2.09,5.13,4Q208.89,60.27,214.11,53.43Z"/><path class="cls-1" d="M214.11,84.9,208.22,81q-4.75,6.75-9.69,12.54,2.94,2.09,5.13,4Q208.89,91.74,214.11,84.9Z"/></g></g></svg>