<svg xmlns="http://www.w3.org/2000/svg" viewBox="0 0 1290.71 204.02"><defs><style>.cls-1{fill:#317a74;}</style></defs><title>fullLogo</title><g id="Layer_2" data-name="Layer 2"><g id="Layer_1-2" data-name="Layer 1"><path class="cls-1" d="M102,0A102,102,0,1,0,204,102,102,102,0,0,0,102,0ZM162.9,118.23c0,24.08-25.19,58.84-54.71,58.84H108l-.06-19.61c19.35-3,32.24-23.89,32.24-23.89H63.84s12.89,20.91,32.24,23.89L96,177.07h-.19c-29.52,0-54.71-34.76-54.71-58.84V102H80.63L102,123.27,123.38,102H162.9ZM150.58,94.72a103.57,103.57,0,0,0-4.3-27.49L102,112.38,57.73,67.24a103.55,103.55,0,0,0-4.3,27.49l-12.31-.15c-.11-12,6.6-39.37,10.78-51.13L102,95l50.11-51.59C156.29,55.2,163,82.61,162.9,94.57Z"/><polygon class="cls-1" points="355.75 112.84 279.19 112.84 279.19 106.7 309.8 106.7 309.8 37.9 315.94 37.9 315.94 106.7 355.75 106.7 355.75 112.84"/><polygon class="cls-1" points="321.7 72.8 339.54 62.71 342.59 68.05 324.75 78.14 321.7 72.8"/><polygon class="cls-1" points="373.66 52.48 365.48 44.29 369.74 39.94 377.93 48.21 373.66 52.48"/><rect class="cls-1" x="368.69" y="70.14" width="6.03" height="11.58" transform="translate(55.18 285.07) rotate(-45)"/><polygon class="cls-1" points="377.93 103.29 369.74 111.39 365.48 107.13 373.66 98.94 377.93 103.29"/><path class="cls-1" d="M439.91,50.51V44.38H397.62V38h-6.14v8.44l-7.59,10.06,4.86,3.67.17-.17V81h-6.57v6.14h6.57v22.42H428.4v4.86h6.14v-4.86h5.37v-6.14h-5.37V87.09h5.37V81h-5.37V58.27H390.12L396,50.51Zm-44.85,13.9H428.4V81H395.06Zm0,22.68H428.4v16.29H395.06Z"/><polygon class="cls-1" points="412.97 78.14 406.57 71.75 411.01 67.4 417.4 73.88 412.97 78.14"/><polygon class="cls-1" points="412.97 100.39 406.57 94 411.01 89.65 417.4 96.13 412.97 100.39"/><path class="cls-1" d="M471.21,85.81v-38h-10.4V105l-3.75,9-5.63-2.3,3.24-7.84V41.65h22.68v71.71H465.07v-6.14h6.14V85.81Zm9.38-19.61h14.24v8.44l-9.63,33.59-5.88-1.62L488.69,74V72.34h-8.1Zm38.62-16.88H485.62l-5.46-6.65,4.77-3.84,3.58,4.35h30.7Zm-36.49,5h23.36v6.91l4.18,10.15,9.29-8.1,4,4.6-10.83,9.46,11.77,28.56-5.63,2.3L506.08,77.37V113H492.27v-6.14h7.67V60.49H482.72Z"/><path class="cls-1" d="M570.2,114.29V97.15l-31.63,15.18L536,106.79,570.2,90.33V83.26H545.65V96.64h-6.14V77.12h30.7V70.55H535V64.41H570.2v-6h6.14v6h35.21v6.14H576.34v6.57H607V96.64H600.9V83.26H576.34v7.08l34.11,16.46-2.56,5.54L576.34,97.15v17.14Zm3.58-65.74H547.44l-6.05,9.38-5.29-3.41,6.57-10.06V38h6.14v4.43h25ZM586.49,38v4.43h25v6.14H585.12L579,57.93l-5.2-3.41,6.57-10.06V38Z"/><path class="cls-1" d="M709.19,106.79h5.88V86.24h-8.53V80.1h8.53V59h-9.55V52.9h9.55v-15h6.14v15h7.67V59h-7.67V77.46c1.62-1.45,3.24-2.81,4.86-4.18l4,4.78-8.87,7.5v27.37h-12Zm25.41,6.65-5.37-2.9,4.95-9V40.28h46.38V61.51H740.31V103Zm39.82-58.07v-9H740.31v9Zm7.67,23.36H766.32v9.12h13.81v25H746.36v-25h13.81V78.74H744.32V72.6h15.86V65.52h6.14V72.6h15.77ZM752.5,94v12.7H774V94Z"/><path class="cls-1" d="M804.94,114.38V80.44l-8.44,20.72-5.63-2.3,12.62-31.12h-12V61.6h13.47V49.32H792.41V43.18h23.7L820.21,39l4.43,4.26-5.8,6.05h-7.76V61.6h13.47v6.14H813l10.57,20.63-5.54,2.81-7-13.73v36.92Zm62.24-20.89h-10v21h-6.14v-21H825.66V87.35h25.41V37.9h6.14V87.35h10ZM831,75l8.46-7.78,4.09,4.43-8.37,7.87Zm.34-17.82,8.46-7.87,4.09,4.43-8.37,7.87Z"/><path class="cls-1" d="M880.58,106.53h7.25V86H877.59V79.85h10.23v-21H876.31V52.73h11.51v-15H894v15h9.21v6.14H894V77.71c2.13-1.62,4.18-3.24,6.31-4.78l3.67,4.95L894,85.3v27.37H880.58Zm25.32,2,17.82-14.58L908.29,81.38l3.84-4.69L928.58,90l14.58-11.94V72.6H906V66.46h20.12V54.1H906V48h20.12V37.72h6.14V48h20V54.1h-20V66.46H949.3V81l-15.86,13,18.08,14.58-3.84,4.78-19.1-15.43-18.84,15.43Z"/><path class="cls-1" d="M993,38.07v9.72h44.85v6.14H991.42l-6.74,9.29h44.59v49.71h-15v-6.14h8.87V69.36H984v45h-6.14V72.68L967.55,86.92l-4.95-3.5,21.32-29.5H961.41V47.79h25.41V38.07ZM992,101l16.78-9.44,3.13,5.36-16.76,9.36Zm0-17.24,16.78-9.44,3.13,5.36L995.12,89Zm97.39-19.9,16.78-9.44,3.13,5.36-16.76,9.36Z"/><path class="cls-1" d="M1047.78,114.63V40.2h24.39V61.68l-6.65,10.74h6.65v32.32h-13.39V98.6H1066v-20h-7.59V72.34L1066,60.06V46.34h-12.11v68.3Zm68.3-28.39,4,4.6-11.6,10.06,5.2,6.05H1122v6.14h-11l-26.77-31.29V107h11v6.14h-17.14V40.2h41.61V81.47H1092l12.53,14.75Zm-2.56-10.91v-29h-29.33v29Z"/><path class="cls-1" d="M1166.32,42.25l-25.58,35.47-4.95-3.58,25.66-35.47ZM1197,108.34l-55.8,4.6v-7.25L1172,62.89l4.95,3.5-29.42,40.42,46.33-4.6Zm-12.74-69.67,25.66,35.47-4.95,3.58-25.58-35.47Z"/><path class="cls-1" d="M1187.2,83.55l17.41,30.67-5.3,3L1182,86.59Z"/><path class="cls-1" d="M1220,56.65h54.83v6.14H1220Zm.94-15.6h69.75v71.79h-17.39V106.7h11.26V47.19H1221Zm51.16,30.87v31.55h-49.37V71.92Zm-43.23,6.14V97.32H1266V78.06Z"/><path class="cls-1" d="M297.56,135l-4.06,2.41a7,7,0,0,0-2.17-2.58,5.06,5.06,0,0,0-2.77-.69,5.12,5.12,0,0,0-3.46,1.18,3.66,3.66,0,0,0-1.37,2.92q0,2.43,3.61,3.91l3.31,1.35a14.12,14.12,0,0,1,5.91,4,9,9,0,0,1,1.87,5.77,10.13,10.13,0,0,1-3,7.56,10.47,10.47,0,0,1-7.62,3,10.2,10.2,0,0,1-7.13-2.56,11.77,11.77,0,0,1-3.46-7.19l5.07-1.12a8.62,8.62,0,0,0,1.2,4,5.71,5.71,0,0,0,8.4.58,5.42,5.42,0,0,0,1.55-4,5.58,5.58,0,0,0-.27-1.77,4.5,4.5,0,0,0-.84-1.48,6.7,6.7,0,0,0-1.47-1.27,14.2,14.2,0,0,0-2.15-1.13l-3.2-1.33q-6.81-2.88-6.81-8.42A8,8,0,0,1,281.5,132a10.32,10.32,0,0,1,7.11-2.53Q294.34,129.46,297.56,135Z"/><path class="cls-1" d="M303.53,127h4.83v17.1a8.32,8.32,0,0,1,5.69-2.32,7.35,7.35,0,0,1,5.67,2.3q1.8,2,1.8,6.38v12.82H316.7V150.9a5.9,5.9,0,0,0-.89-3.64,3.44,3.44,0,0,0-2.87-1.13,3.94,3.94,0,0,0-3.57,1.57q-1,1.59-1,5.45v10.12h-4.83Z"/><path class="cls-1" d="M343.07,142.35h4.85v20.92h-4.85v-2.19a9.28,9.28,0,0,1-13.59-.34,11.66,11.66,0,0,1-2.81-8,11.3,11.3,0,0,1,2.81-7.84,9.07,9.07,0,0,1,7-3.14,8.9,8.9,0,0,1,6.55,3ZM331.6,152.74a7.29,7.29,0,0,0,1.61,4.9,5.27,5.27,0,0,0,4.17,1.91,5.54,5.54,0,0,0,4.34-1.85,7.95,7.95,0,0,0,0-9.71,5.47,5.47,0,0,0-4.3-1.87,5.34,5.34,0,0,0-4.17,1.89A7,7,0,0,0,331.6,152.74Z"/><path class="cls-1" d="M354,142.35h4.85v1.93a7.92,7.92,0,0,1,5.71-2.51,7.22,7.22,0,0,1,5.69,2.3q1.76,2,1.76,6.38v12.82h-4.85V151.59q0-3.09-.86-4.27a3.47,3.47,0,0,0-3-1.2,3.73,3.73,0,0,0-3.41,1.59q-1,1.57-1,5.48v10.09H354Z"/><path class="cls-1" d="M398.37,162.77q0,1.48-.1,2.61a18.17,18.17,0,0,1-.27,2,8.85,8.85,0,0,1-2,4.06,9.78,9.78,0,0,1-7.8,3.26,10.4,10.4,0,0,1-6.89-2.26,9.22,9.22,0,0,1-3.22-6.42h4.85a5.49,5.49,0,0,0,.92,2.38,5.19,5.19,0,0,0,4.38,2q5.3,0,5.3-6.51v-2.92a9,9,0,0,1-6.64,2.94,8.91,8.91,0,0,1-7-3.09,11.46,11.46,0,0,1-2.75-7.84,12.07,12.07,0,0,1,2.56-7.77,8.88,8.88,0,0,1,7.26-3.39,8.43,8.43,0,0,1,6.57,2.94v-2.36h4.83Zm-4.64-9.92A7,7,0,0,0,392.1,148a5.4,5.4,0,0,0-4.23-1.87,5.2,5.2,0,0,0-4.34,2,8.41,8.41,0,0,0,0,9.41,5.21,5.21,0,0,0,4.34,2,5.31,5.31,0,0,0,4.38-2A7.19,7.19,0,0,0,393.73,152.85Z"/><path class="cls-1" d="M404.47,127h4.83v17.1a8.32,8.32,0,0,1,5.69-2.32,7.35,7.35,0,0,1,5.67,2.3q1.8,2,1.8,6.38v12.82h-4.83V150.9a5.9,5.9,0,0,0-.89-3.64,3.44,3.44,0,0,0-2.87-1.13,3.94,3.94,0,0,0-3.57,1.57q-1,1.59-1,5.45v10.12h-4.83Z"/><path class="cls-1" d="M444,142.35h4.85v20.92H444v-2.19a9.28,9.28,0,0,1-13.59-.34,11.66,11.66,0,0,1-2.81-8,11.3,11.3,0,0,1,2.81-7.84,9.07,9.07,0,0,1,7-3.14,8.9,8.9,0,0,1,6.55,3Zm-11.47,10.39a7.29,7.29,0,0,0,1.61,4.9,5.27,5.27,0,0,0,4.17,1.91,5.54,5.54,0,0,0,4.34-1.85,7.95,7.95,0,0,0,0-9.71,5.47,5.47,0,0,0-4.3-1.87,5.34,5.34,0,0,0-4.17,1.89A7,7,0,0,0,432.54,152.74Z"/><path class="cls-1" d="M454.23,133.65a3.15,3.15,0,0,1,3.14-3.11,3,3,0,0,1,2.23.92,3,3,0,0,1,.92,2.21,3,3,0,0,1-.92,2.23,3,3,0,0,1-2.21.92,3.15,3.15,0,0,1-3.16-3.18Zm5.56,8.7v20.92H455V142.35Z"/><path class="cls-1" d="M479.25,163.27l7-35.65,11.38,25.77,11.79-25.77,6.27,35.65h-5.13l-3.2-20-9.81,21.54L488,143.23l-3.57,20Z"/><path class="cls-1" d="M540.82,153.95h-15a6.35,6.35,0,0,0,1.68,4.1,5.11,5.11,0,0,0,3.8,1.5,4.94,4.94,0,0,0,3-.86,12.22,12.22,0,0,0,2.64-3.18l4.08,2.28a16.24,16.24,0,0,1-2,2.76,10.62,10.62,0,0,1-2.25,1.89,9.05,9.05,0,0,1-2.6,1.08,12.66,12.66,0,0,1-3,.34,9.85,9.85,0,0,1-7.52-3,11.28,11.28,0,0,1-2.83-8,11.59,11.59,0,0,1,2.75-8,10.48,10.48,0,0,1,14.65-.09q2.66,2.92,2.66,8.1Zm-5-4a4.63,4.63,0,0,0-4.88-3.87,5,5,0,0,0-1.65.27,4.74,4.74,0,0,0-1.41.77,4.9,4.9,0,0,0-1.08,1.21,5.63,5.63,0,0,0-.69,1.61Z"/><path class="cls-1" d="M551.47,146.86v16.41h-4.83V146.86h-2.06v-4.51h2.06v-7.67h4.83v7.67h3.76v4.51Z"/><path class="cls-1" d="M558.52,142.35h4.83v1.87a9.23,9.23,0,0,1,2.36-1.91,5.42,5.42,0,0,1,2.49-.54,7.81,7.81,0,0,1,4,1.25L570,147.44a4.62,4.62,0,0,0-2.68-1q-4,0-4,6v10.85h-4.83Z"/><path class="cls-1" d="M573.59,152.66a10.39,10.39,0,0,1,3.24-7.71,11.44,11.44,0,0,1,15.85,0,11.2,11.2,0,0,1,0,15.74,11.08,11.08,0,0,1-8,3.16,10.63,10.63,0,0,1-7.88-3.22A10.83,10.83,0,0,1,573.59,152.66Zm4.94.09a7.05,7.05,0,0,0,1.68,5,6.51,6.51,0,0,0,9.06,0,7.85,7.85,0,0,0,0-9.75,6.43,6.43,0,0,0-9,0A6.72,6.72,0,0,0,578.53,152.74Z"/><path class="cls-1" d="M616.44,127h4.85v36.27h-4.85v-2.19a9,9,0,0,1-6.46,2.79,9.2,9.2,0,0,1-7.13-3.14,11.66,11.66,0,0,1-2.81-8,11.27,11.27,0,0,1,2.81-7.82,9,9,0,0,1,13.59-.15ZM605,152.74a7.29,7.29,0,0,0,1.61,4.9,5.27,5.27,0,0,0,4.17,1.91,5.54,5.54,0,0,0,4.34-1.85,7.95,7.95,0,0,0,0-9.71,5.47,5.47,0,0,0-4.3-1.87,5.34,5.34,0,0,0-4.17,1.89A7,7,0,0,0,605,152.74Z"/><path class="cls-1" d="M642.81,142.35h4.85v20.92h-4.85v-2.19a9.28,9.28,0,0,1-13.59-.34,11.66,11.66,0,0,1-2.81-8,11.3,11.3,0,0,1,2.81-7.84,9.07,9.07,0,0,1,7-3.14,8.9,8.9,0,0,1,6.55,3Zm-11.47,10.39a7.29,7.29,0,0,0,1.61,4.9,5.27,5.27,0,0,0,4.17,1.91,5.54,5.54,0,0,0,4.34-1.85,7.95,7.95,0,0,0,0-9.71,5.47,5.47,0,0,0-4.3-1.87A5.34,5.34,0,0,0,633,148,7,7,0,0,0,631.34,152.74Z"/><path class="cls-1" d="M658.75,146.86v16.41h-4.83V146.86h-2.06v-4.51h2.06v-7.67h4.83v7.67h3.76v4.51Z"/><path class="cls-1" d="M681.6,142.35h4.85v20.92H681.6v-2.19a9.28,9.28,0,0,1-13.59-.34,11.66,11.66,0,0,1-2.81-8,11.3,11.3,0,0,1,2.81-7.84,9.07,9.07,0,0,1,7-3.14,8.9,8.9,0,0,1,6.55,3Zm-11.47,10.39a7.29,7.29,0,0,0,1.61,4.9,5.27,5.27,0,0,0,4.17,1.91,5.55,5.55,0,0,0,4.34-1.85,7.95,7.95,0,0,0,0-9.71,5.47,5.47,0,0,0-4.3-1.87,5.34,5.34,0,0,0-4.17,1.89A7,7,0,0,0,670.13,152.74Z"/><path class="cls-1" d="M716.19,134.81v28.46h-5V134.81h-7.62v-4.7H723.8v4.7Z"/><path class="cls-1" d="M744.59,153.95h-15a6.35,6.35,0,0,0,1.68,4.1,5.11,5.11,0,0,0,3.8,1.5,4.94,4.94,0,0,0,3-.86,12.22,12.22,0,0,0,2.64-3.18l4.08,2.28a16.25,16.25,0,0,1-2,2.76,10.62,10.62,0,0,1-2.26,1.89,9.05,9.05,0,0,1-2.6,1.08,12.66,12.66,0,0,1-3,.34,9.85,9.85,0,0,1-7.52-3,11.28,11.28,0,0,1-2.83-8,11.59,11.59,0,0,1,2.75-8,10.48,10.48,0,0,1,14.65-.09q2.66,2.92,2.66,8.1Zm-5-4a4.63,4.63,0,0,0-4.88-3.87,5,5,0,0,0-1.65.27,4.74,4.74,0,0,0-1.41.77,4.9,4.9,0,0,0-1.08,1.21,5.64,5.64,0,0,0-.69,1.61Z"/><path class="cls-1" d="M766.15,143.25v6.42a11.79,11.79,0,0,0-3-2.77,5.77,5.77,0,0,0-3-.77,6,6,0,0,0-4.53,1.91,6.7,6.7,0,0,0-1.8,4.79,6.86,6.86,0,0,0,1.74,4.83,5.86,5.86,0,0,0,4.49,1.89,6.14,6.14,0,0,0,3.07-.75,12.17,12.17,0,0,0,3-2.83v6.38a12.69,12.69,0,0,1-5.88,1.52,11.26,11.26,0,0,1-8.12-3.14,10.46,10.46,0,0,1-3.26-7.84,10.6,10.6,0,0,1,3.31-7.9,11.19,11.19,0,0,1,8.12-3.22A12.13,12.13,0,0,1,766.15,143.25Z"/><path class="cls-1" d="M772,127h4.83v17.1a8.32,8.32,0,0,1,5.69-2.32,7.35,7.35,0,0,1,5.67,2.3q1.8,2,1.8,6.38v12.82h-4.83V150.9a5.9,5.9,0,0,0-.89-3.64,3.43,3.43,0,0,0-2.87-1.13,3.94,3.94,0,0,0-3.57,1.57q-1,1.59-1,5.45v10.12H772Z"/><path class="cls-1" d="M796.09,142.35h4.85v1.93a7.92,7.92,0,0,1,5.71-2.51,7.22,7.22,0,0,1,5.69,2.3q1.76,2,1.76,6.38v12.82h-4.85V151.59q0-3.09-.86-4.27a3.47,3.47,0,0,0-3-1.2,3.73,3.73,0,0,0-3.41,1.59q-1,1.57-1,5.48v10.09h-4.85Z"/><path class="cls-1" d="M819.22,152.66a10.39,10.39,0,0,1,3.24-7.71,11.44,11.44,0,0,1,15.85,0,11.2,11.2,0,0,1,0,15.74,11.08,11.08,0,0,1-8,3.16,10.63,10.63,0,0,1-7.88-3.22A10.83,10.83,0,0,1,819.22,152.66Zm4.94.09a7.05,7.05,0,0,0,1.68,5,6.51,6.51,0,0,0,9.06,0,7.85,7.85,0,0,0,0-9.75,6.43,6.43,0,0,0-9,0A6.72,6.72,0,0,0,824.16,152.74Z"/><path class="cls-1" d="M851.47,127v36.27h-4.83V127Z"/><path class="cls-1" d="M856.61,152.66a10.39,10.39,0,0,1,3.24-7.71,11.44,11.44,0,0,1,15.85,0,11.2,11.2,0,0,1,0,15.74,11.08,11.08,0,0,1-8,3.16,10.63,10.63,0,0,1-7.88-3.22A10.83,10.83,0,0,1,856.61,152.66Zm4.94.09a7.05,7.05,0,0,0,1.68,5,6.51,6.51,0,0,0,9.06,0,7.85,7.85,0,0,0,0-9.75,6.43,6.43,0,0,0-9,0A6.72,6.72,0,0,0,861.55,152.74Z"/><path class="cls-1" d="M904.26,162.77q0,1.48-.1,2.61a18.19,18.19,0,0,1-.27,2,8.85,8.85,0,0,1-2,4.06,9.78,9.78,0,0,1-7.8,3.26,10.4,10.4,0,0,1-6.89-2.26A9.22,9.22,0,0,1,884,166h4.85a5.49,5.49,0,0,0,.92,2.38,5.19,5.19,0,0,0,4.38,2q5.3,0,5.3-6.51v-2.92a9,9,0,0,1-6.64,2.94,8.91,8.91,0,0,1-7-3.09,11.46,11.46,0,0,1-2.75-7.84,12.07,12.07,0,0,1,2.56-7.77,8.88,8.88,0,0,1,7.26-3.39,8.43,8.43,0,0,1,6.57,2.94v-2.36h4.83Zm-4.64-9.92A7,7,0,0,0,898,148a5.4,5.4,0,0,0-4.23-1.87,5.2,5.2,0,0,0-4.34,2,8.41,8.41,0,0,0,0,9.41,5.21,5.21,0,0,0,4.34,2,5.3,5.3,0,0,0,4.38-2A7.19,7.19,0,0,0,899.62,152.85Z"/><path class="cls-1" d="M917,159.38l-9.41-17h5.61l6.4,12,6-12H931l-16.67,32.3h-5.52Z"/><path class="cls-1" d="M953.76,130.11v28.46h9.75v4.7H948.76V130.11Z"/><path class="cls-1" d="M966.61,133.65a3.15,3.15,0,0,1,3.14-3.11,3,3,0,0,1,2.23.92,3,3,0,0,1,.92,2.21,3,3,0,0,1-.92,2.23,3,3,0,0,1-2.21.92,3.15,3.15,0,0,1-3.16-3.18Zm5.56,8.7v20.92h-4.83V142.35Z"/><path class="cls-1" d="M978.29,142.35h4.83v1.93a10.1,10.1,0,0,1,2.38-2,5.79,5.79,0,0,1,2.64-.54,6.41,6.41,0,0,1,5.61,3.09,7.26,7.26,0,0,1,6.16-3.09q7.07,0,7.07,8.57v12.93h-4.85V151.65a9,9,0,0,0-.73-4.25,2.65,2.65,0,0,0-2.47-1.27,3.15,3.15,0,0,0-2.91,1.5,9.68,9.68,0,0,0-.91,4.83v10.8h-4.85V151.71q0-5.58-3.22-5.58a3.23,3.23,0,0,0-3,1.52,9.51,9.51,0,0,0-.93,4.81v10.8h-4.83Z"/><path class="cls-1" d="M1012.35,133.65a3.15,3.15,0,0,1,3.14-3.11,3,3,0,0,1,2.23.92,3,3,0,0,1,.92,2.21,3,3,0,0,1-.92,2.23,3,3,0,0,1-2.21.92,3.15,3.15,0,0,1-3.16-3.18Zm5.56,8.7v20.92h-4.83V142.35Z"/><path class="cls-1" d="M1029,146.86v16.41h-4.83V146.86h-2.06v-4.51h2.06v-7.67H1029v7.67h3.76v4.51Z"/><path class="cls-1" d="M1055.5,153.95h-15a6.35,6.35,0,0,0,1.68,4.1,5.11,5.11,0,0,0,3.8,1.5,4.94,4.94,0,0,0,3-.86,12.22,12.22,0,0,0,2.64-3.18l4.08,2.28a16.25,16.25,0,0,1-2,2.76,10.62,10.62,0,0,1-2.26,1.89,9.05,9.05,0,0,1-2.6,1.08,12.66,12.66,0,0,1-3,.34,9.85,9.85,0,0,1-7.52-3,11.28,11.28,0,0,1-2.83-8,11.59,11.59,0,0,1,2.75-8,10.48,10.48,0,0,1,14.65-.09q2.66,2.92,2.66,8.1Zm-5-4a4.63,4.63,0,0,0-4.88-3.87,5,5,0,0,0-1.65.27,4.74,4.74,0,0,0-1.41.77,4.9,4.9,0,0,0-1.08,1.21,5.64,5.64,0,0,0-.69,1.61Z"/><path class="cls-1" d="M1076.2,127h4.85v36.27h-4.85v-2.19a9,9,0,0,1-6.46,2.79,9.2,9.2,0,0,1-7.13-3.14,11.66,11.66,0,0,1-2.81-8,11.27,11.27,0,0,1,2.81-7.82,9,9,0,0,1,13.59-.15Zm-11.47,25.75a7.29,7.29,0,0,0,1.61,4.9,5.27,5.27,0,0,0,4.17,1.91,5.55,5.55,0,0,0,4.34-1.85,7.95,7.95,0,0,0,0-9.71,5.47,5.47,0,0,0-4.3-1.87,5.34,5.34,0,0,0-4.17,1.89A7,7,0,0,0,1064.73,152.74Z"/><path class="cls-1" d="M1126.15,131.89v5.93a13.88,13.88,0,0,0-9-3.63,11.43,11.43,0,0,0-8.61,3.67,12.38,12.38,0,0,0-3.52,8.93,12.08,12.08,0,0,0,3.52,8.81,11.63,11.63,0,0,0,8.63,3.59,10.59,10.59,0,0,0,4.49-.86,12.94,12.94,0,0,0,2.14-1.16,25.24,25.24,0,0,0,2.33-1.76v6a18.07,18.07,0,0,1-9,2.43,16.64,16.64,0,0,1-12.13-5,16.45,16.45,0,0,1-5-12.07,17,17,0,0,1,4.19-11.3,16.67,16.67,0,0,1,13.34-6.08A16.93,16.93,0,0,1,1126.15,131.89Z"/><path class="cls-1" d="M1130.56,152.66a10.39,10.39,0,0,1,3.24-7.71,11.44,11.44,0,0,1,15.85,0,11.2,11.2,0,0,1,0,15.74,11.08,11.08,0,0,1-8,3.16,10.63,10.63,0,0,1-7.88-3.22A10.83,10.83,0,0,1,1130.56,152.66Zm4.94.09a7.05,7.05,0,0,0,1.68,5,6.51,6.51,0,0,0,9.06,0,7.85,7.85,0,0,0,0-9.75,6.43,6.43,0,0,0-9,0A6.72,6.72,0,0,0,1135.49,152.74Z"/><path class="cls-1" d="M1158,142.35h4.83v1.93a10.1,10.1,0,0,1,2.38-2,5.79,5.79,0,0,1,2.64-.54,6.41,6.41,0,0,1,5.61,3.09,7.26,7.26,0,0,1,6.16-3.09q7.07,0,7.07,8.57v12.93h-4.85V151.65a9,9,0,0,0-.73-4.25,2.65,2.65,0,0,0-2.47-1.27,3.15,3.15,0,0,0-2.91,1.5,9.68,9.68,0,0,0-.91,4.83v10.8h-4.85V151.71q0-5.58-3.22-5.58a3.23,3.23,0,0,0-3,1.52,9.51,9.51,0,0,0-.93,4.81v10.8H1158Z"/><path class="cls-1" d="M1198.14,174.65h-4.83v-32.3h4.83v2.28a8.94,8.94,0,0,1,6.49-2.86,9,9,0,0,1,7.11,3.18,11.48,11.48,0,0,1,2.83,8,11.3,11.3,0,0,1-2.81,7.84,9.17,9.17,0,0,1-13.62.17Zm11.49-21.71A7.23,7.23,0,0,0,1208,148a5.28,5.28,0,0,0-4.17-1.91,5.52,5.52,0,0,0-4.32,1.85,7,7,0,0,0-1.65,4.85,7.15,7.15,0,0,0,1.65,4.85,5.43,5.43,0,0,0,4.3,1.87,5.24,5.24,0,0,0,4.14-1.89A6.86,6.86,0,0,0,1209.63,152.94Z"/><path class="cls-1" d="M1235.1,142.35H1240v20.92h-4.85v-2.19a9.28,9.28,0,0,1-13.59-.34,11.66,11.66,0,0,1-2.81-8,11.3,11.3,0,0,1,2.81-7.84,9.07,9.07,0,0,1,7-3.14,8.9,8.9,0,0,1,6.55,3Zm-11.47,10.39a7.29,7.29,0,0,0,1.61,4.9,5.27,5.27,0,0,0,4.17,1.91,5.55,5.55,0,0,0,4.34-1.85,7.95,7.95,0,0,0,0-9.71,5.47,5.47,0,0,0-4.3-1.87,5.34,5.34,0,0,0-4.17,1.89A7,7,0,0,0,1223.63,152.74Z"/><path class="cls-1" d="M1246.05,142.35h4.85v1.93a7.92,7.92,0,0,1,5.71-2.51,7.22,7.22,0,0,1,5.69,2.3q1.76,2,1.76,6.38v12.82h-4.85V151.59q0-3.09-.86-4.27a3.47,3.47,0,0,0-3-1.2,3.73,3.73,0,0,0-3.41,1.59q-1,1.57-1,5.48v10.09h-4.85Z"/><path class="cls-1" d="M1276.06,159.38l-9.41-17h5.61l6.4,12,6-12h5.45l-16.67,32.3h-5.52Z"/><path class="cls-1" d="M599.65,52.51,595.81,50q-3.1,4.4-6.32,8.18,1.92,1.37,3.34,2.6Q596.25,57,599.65,52.51Z"/><path class="cls-1" d="M562.83,52.51,559,50q-3.1,4.4-6.32,8.18,1.92,1.37,3.34,2.6Q559.42,57,562.83,52.51Z"/><path class="cls-1" d="M471.42,61.28l-4.08-2.69q-3.29,4.67-6.71,8.68,2,1.45,3.55,2.76Q467.8,66,471.42,61.28Z"/><path class="cls-1" d="M471.42,83.05l-4.08-2.69Q464.05,85,460.63,89q2,1.45,3.55,2.76Q467.8,87.79,471.42,83.05Z"/><path class="cls-1" d="M636.73,41.81l-4.79-3.17q-3.86,5.48-7.88,10.2,2.39,1.7,4.17,3.24Q632.48,47.37,636.73,41.81Z"/><path class="cls-1" d="M662.9,41.81l-4.79-3.17q-3.86,5.48-7.88,10.2,2.39,1.7,4.17,3.24Q658.65,47.37,662.9,41.81Z"/><path class="cls-1" d="M662.38,66.31l-4.79-3.17q-3.87,5.48-7.88,10.2,2.39,1.7,4.17,3.24Q658.12,71.87,662.38,66.31Z"/><path class="cls-1" d="M637.06,66l-4.79-3.17q-3.86,5.48-7.88,10.2,2.39,1.7,4.17,3.24Q632.81,71.54,637.06,66Z"/><path class="cls-1" d="M641.9,61.11"/><path class="cls-1" d="M659.26,61.14l3.36-5.1H646.29V38.74h-5.72V56H624.13v5.1h13.64l2.88,0-.07,5.67v9.8h5.72v-8.8l.06,0a4.53,4.53,0,0,1,0-2.07l-.08.09V61.14Z"/><path class="cls-1" d="M684.57,94.72c-.19-.14-4.17-6.61-4.2-6.55q-6.34-11.66-7.73-28a21,21,0,0,0,.85-1.93s14.44,0,14.44,0c.23,0,6.18,0,6.18,0H699V52.95H675.35a133.49,133.49,0,0,0,3.79-14L673,38q-3,18.54-12,31.44a61,61,0,0,1,3.86,4.94,58.72,58.72,0,0,0,3.4-5.33,68.55,68.55,0,0,0,8.27,25c-.05.07,4,5.88,4.1,6.13A59.84,59.84,0,0,0,696,114.28q1.7-2.71,4.17-6.11A49.53,49.53,0,0,1,684.57,94.72Z"/><path class="cls-1" d="M651.4,100.92a36.53,36.53,0,0,0,8.89-13.29v-5H641.36q1.23-2.09,2.47-4.25l-5.56-1.78q-1.62,3.09-3.32,6H623.21v5.1H632q-2.32,3.78-4.79,7.33,7.26,3.56,13.9,7a62.75,62.75,0,0,1-19.08,7.34q1.39,2.94,2.63,5.41,13.28-3.64,22-9.89,5.17,2.7,10,5.4l3.4-5.33Q655.65,102.92,651.4,100.92Zm-5.33-2.47q-5.79-2.7-11.28-5.18,1.78-2.71,3.55-5.56h16.07A33.07,33.07,0,0,1,646.08,98.44Z"/><path class="cls-1" d="M693.58,84l-4.72-3.21c-2.23,3.87-18.92,27.07-21.31,30.44,1.67,1.2,3.26,1.85,4.53,2.77C674.61,110.65,691.08,88,693.58,84Z"/></g></g></svg>