<svg xmlns="http://www.w3.org/2000/svg" viewBox="0 0 200 60"><defs><style>.cls-1{fill:#1a243b;opacity:0;}.cls-2{fill:#fff;}</style></defs><title>logo</title><g id="Layer_2" data-name="Layer 2"><g id="Layer_1-2" data-name="Layer 1"><rect class="cls-1" width="200" height="60"/><path class="cls-2" d="M38.31,19.8A11.39,11.39,0,1,0,49.69,31.18,11.39,11.39,0,0,0,38.31,19.8ZM45.1,33c0,2.69-2.81,6.57-6.11,6.57h0V37.37c2.16-.33,3.6-2.67,3.6-2.67H34s1.44,2.33,3.6,2.67v2.19h0c-3.29,0-6.11-3.88-6.11-6.57V31.18h4.41l2.39,2.37,2.39-2.37H45.1Zm-1.37-2.62a11.56,11.56,0,0,0-.48-3.07l-4.94,5-4.94-5a11.56,11.56,0,0,0-.48,3.07l-1.37,0a24.11,24.11,0,0,1,1.2-5.71l5.59,5.76,5.59-5.76a24.1,24.1,0,0,1,1.2,5.71Z"/><polygon class="cls-2" points="123.32 26.71 121.42 26.71 121.42 29.72 120.61 29.72 120.61 31.49 121.42 31.49 121.42 37.94 123.32 37.94 123.32 31.49 124.8 31.49 124.8 29.72 123.32 29.72 123.32 26.71"/><path class="cls-2" d="M145.1,29.49a2.85,2.85,0,0,0-2.42,1.21,2.52,2.52,0,0,0-2.2-1.21,2.27,2.27,0,0,0-1,.21,4,4,0,0,0-.94.78v-.76h-1.9v8.22h1.9V33.69a3.74,3.74,0,0,1,.37-1.89,1.27,1.27,0,0,1,1.17-.6q1.26,0,1.27,2.19v4.54h1.91V33.69a3.8,3.8,0,0,1,.36-1.9,1.24,1.24,0,0,1,1.14-.59,1,1,0,0,1,1,.5,3.52,3.52,0,0,1,.29,1.67v4.56h1.91V32.86Q147.87,29.49,145.1,29.49Z"/><rect class="cls-2" x="170.57" y="35.4" width="2.09" height="2.09" transform="translate(12.74 110.87) rotate(-37.09)"/><path class="cls-2" d="M106.88,26.59a5.81,5.81,0,0,0-2.22-1.29,10,10,0,0,0-3.1-.39H98.83v13h2V32.41h0V26.76h.89a5.43,5.43,0,0,1,3.8,1.19,4.53,4.53,0,0,1,1.43,3.48,4.47,4.47,0,0,1-3,4.39,6,6,0,0,1-1.19.23V37.9a7.84,7.84,0,0,0,1.9-.32,6.34,6.34,0,0,0,4.31-6.15A6.23,6.23,0,0,0,106.88,26.59Z"/><path class="cls-2" d="M117.06,30.67a3.5,3.5,0,0,0-2.57-1.18,3.56,3.56,0,0,0-2.77,1.23,4.44,4.44,0,0,0-1.11,3.08,4.58,4.58,0,0,0,1.11,3.14,3.63,3.63,0,0,0,2.82,1.23,3.22,3.22,0,0,0,.63-.07V36.44a2.55,2.55,0,0,1-.4,0,2,2,0,0,1-1.6-.75,2.91,2.91,0,0,1-.62-1.92,2.78,2.78,0,0,1,.63-1.86,2,2,0,0,1,1.6-.74,2.07,2.07,0,0,1,1.64.73,2.86,2.86,0,0,1,.63,1.9h0v4.1H119V29.72h-1.91Z"/><path class="cls-2" d="M132.3,30.67a3.5,3.5,0,0,0-2.57-1.18A3.56,3.56,0,0,0,127,30.72a4.44,4.44,0,0,0-1.11,3.08A4.58,4.58,0,0,0,127,36.94a3.63,3.63,0,0,0,2.82,1.23,3.22,3.22,0,0,0,.63-.07V36.44a2.55,2.55,0,0,1-.4,0,2,2,0,0,1-1.6-.75,2.91,2.91,0,0,1-.62-1.92,2.78,2.78,0,0,1,.63-1.86,2,2,0,0,1,1.6-.74,2.07,2.07,0,0,1,1.64.73,2.86,2.86,0,0,1,.63,1.9h0v4.1h1.9V29.72H132.3Z"/><path class="cls-2" d="M156.32,30.67a3.5,3.5,0,0,0-2.57-1.18A3.56,3.56,0,0,0,151,30.72a4.44,4.44,0,0,0-1.11,3.08A4.58,4.58,0,0,0,151,36.94a3.63,3.63,0,0,0,2.82,1.23,3.22,3.22,0,0,0,.63-.07V36.44a2.55,2.55,0,0,1-.4,0,2,2,0,0,1-1.6-.75,2.91,2.91,0,0,1-.62-1.92,2.78,2.78,0,0,1,.63-1.86,2,2,0,0,1,1.6-.74,2.07,2.07,0,0,1,1.64.73,2.86,2.86,0,0,1,.63,1.9h0v4.1h1.9V29.72h-1.91Z"/><path class="cls-2" d="M165.07,29.49a3.51,3.51,0,0,0-2.55,1.12v-.89h-1.9V42.41h1.9V39.72h0V33.83h0a2.69,2.69,0,0,1,.63-1.86,2.12,2.12,0,0,1,1.66-.71,2,2,0,0,1,1.6.73,2.77,2.77,0,0,1,.63,1.88,2.63,2.63,0,0,1-.64,1.81,2,2,0,0,1-1.59.72,2.54,2.54,0,0,1-.39,0V38.1a3.39,3.39,0,0,0,.69.07A3.56,3.56,0,0,0,167.87,37,4.44,4.44,0,0,0,169,33.87a4.51,4.51,0,0,0-1.11-3.13A3.55,3.55,0,0,0,165.07,29.49Z"/><polygon class="cls-2" points="69.98 24.91 69.98 23.51 62.97 23.51 62.16 22.52 61.07 23.39 62.31 24.91 69.98 24.91"/><polygon class="cls-2" points="70.97 29.16 70.06 28.1 67.94 29.95 66.98 27.64 66.98 26.06 61.65 26.06 61.65 27.46 65.58 27.46 65.58 38.05 63.83 38.05 63.83 39.45 66.98 39.45 66.98 31.32 69.9 38.36 71.19 37.84 68.5 31.32 70.97 29.16"/><polygon class="cls-2" points="64.41 28.77 61.16 28.77 61.16 30.17 63.01 30.17 63.01 30.56 60.87 37.99 62.21 38.36 64.41 30.69 64.41 28.77"/><polygon class="cls-2" points="55.25 29.83 55.25 30.01 55.25 34.12 55.25 34.16 55.25 37.35 54.51 39.14 55.79 39.66 56.65 37.62 56.65 34.93 56.65 30.63 56.65 24.56 59.02 24.56 59.02 28.75 59.02 28.82 59.02 32.54 59.02 33.36 59.02 38.13 57.62 38.13 57.62 39.53 60.42 39.53 60.42 23.16 55.25 23.16 55.25 29.83"/><polygon class="cls-2" points="85.24 27 83.84 27 83.84 28.36 75.8 28.36 75.8 29.76 83.84 29.76 83.84 31.26 76.83 31.26 76.83 35.71 78.23 35.71 78.23 32.66 83.84 32.66 83.84 34.27 76.03 38.03 76.62 39.3 83.84 35.83 83.84 39.74 85.24 39.74 85.24 35.83 92.44 39.3 93.02 38.03 85.24 34.27 85.24 32.66 90.84 32.66 90.84 35.71 92.24 35.71 92.24 31.26 85.24 31.26 85.24 29.76 93.28 29.76 93.28 28.36 85.24 28.36 85.24 27"/><polygon class="cls-2" points="85.84 26.88 87.24 24.74 93.26 24.74 93.26 23.34 87.55 23.34 87.55 22.32 86.15 22.32 86.15 23.8 84.65 26.1 85.84 26.88"/><polygon class="cls-2" points="78.64 24.74 84.65 24.74 84.65 23.34 78.95 23.34 78.95 22.32 77.55 22.32 77.55 23.8 76.05 26.1 77.26 26.88 78.64 24.74"/><path class="cls-2" d="M89.15,27.37q.78-.87,1.57-1.89l-.88-.58q-.71,1-1.45,1.88Q88.83,27.09,89.15,27.37Z"/><path class="cls-2" d="M80.69,27.37q.78-.87,1.57-1.89l-.88-.58q-.71,1-1.45,1.88Q80.37,27.09,80.69,27.37Z"/><path class="cls-2" d="M58.12,27.22q-.71,1-1.45,1.88.44.31.77.6.78-.87,1.57-1.89Z"/><path class="cls-2" d="M58.12,31.94q-.71,1-1.45,1.88.44.31.77.6.78-.87,1.57-1.89Z"/></g></g></svg>