<svg xmlns="http://www.w3.org/2000/svg" viewBox="0 0 156.32 22.78"><defs><style>.cls-1{fill:#507eff;}</style></defs><title>logoblue</title><g id="Layer_2" data-name="Layer 2"><g id="Layer_1-2" data-name="Layer 1"><g id="Layer_1-2-2" data-name="Layer 1-2"><path class="cls-1" d="M11.4,0A11.39,11.39,0,1,0,22.78,11.4h0A11.39,11.39,0,0,0,11.4,0Zm6.76,13.2c0,2.69-2.78,6.6-6.08,6.6h0V17.6c2.16-.33,3.6-2.67,3.6-2.67H7.09s1.44,2.33,3.6,2.67v2.2h0c-3.29,0-6.11-3.88-6.11-6.57V11.38H9l2.39,2.42,2.39-2.37h4.39Zm-1.37-2.62a11.56,11.56,0,0,0-.48-3.07l-4.94,5-4.94-5a11.56,11.56,0,0,0-.48,3.07H4.61a24.11,24.11,0,0,1,1.2-5.71l5.59,5.76L17,4.87a24.1,24.1,0,0,1,1.17,5.71Z"/><polygon class="cls-1" points="52.98 6.91 51.08 6.91 51.08 9.93 50.27 9.93 50.27 11.69 51.08 11.69 51.08 18.14 52.98 18.14 52.98 11.69 54.46 11.69 54.46 9.93 52.98 9.93 52.98 6.91"/><path class="cls-1" d="M74.76,9.69a2.85,2.85,0,0,0-2.42,1.21,2.52,2.52,0,0,0-2.18-1.21,2.27,2.27,0,0,0-1,.21,4,4,0,0,0-.94.78V9.92h-1.9v8.22h1.84V13.89A3.74,3.74,0,0,1,68.53,12a1.27,1.27,0,0,1,1.17-.6Q71,11.4,71,13.59v4.54h1.91V13.89a3.8,3.8,0,0,1,.36-1.9,1.24,1.24,0,0,1,1.14-.59,1,1,0,0,1,1,.5,3.52,3.52,0,0,1,.29,1.67v4.56h1.91V13.06Q77.53,9.69,74.76,9.69Z"/><rect class="cls-1" x="153.81" y="15.61" width="2.09" height="2.09" transform="translate(21.29 96.76) rotate(-37.09)"/><path class="cls-1" d="M36.54,6.8a5.81,5.81,0,0,0-2.22-1.29,10,10,0,0,0-3.1-.39H28.49v13h2v-5.5h0V7h.89a5.43,5.43,0,0,1,3.78,1.19,4.53,4.53,0,0,1,1.43,3.48,4.47,4.47,0,0,1-3,4.39,6,6,0,0,1-1.19.23V18.1a7.84,7.84,0,0,0,1.9-.32,6.34,6.34,0,0,0,4.31-6.15A6.23,6.23,0,0,0,36.54,6.8Z"/><path class="cls-1" d="M46.72,10.87a3.5,3.5,0,0,0-2.56-1.18,3.56,3.56,0,0,0-2.77,1.23A4.44,4.44,0,0,0,40.28,14a4.58,4.58,0,0,0,1.11,3.14,3.63,3.63,0,0,0,2.77,1.23,3.22,3.22,0,0,0,.63-.07V16.64a2.55,2.55,0,0,1-.4,0,2,2,0,0,1-1.6-.75A2.91,2.91,0,0,1,42.17,14a2.78,2.78,0,0,1,.63-1.86,2,2,0,0,1,1.6-.74A2.07,2.07,0,0,1,46,12.1a2.86,2.86,0,0,1,.63,1.9h0v4.1h2V9.92H46.75Z"/><path class="cls-1" d="M62,10.87a3.5,3.5,0,0,0-2.57-1.18,3.56,3.56,0,0,0-2.73,1.23A4.44,4.44,0,0,0,55.55,14a4.58,4.58,0,0,0,1.11,3.14,3.63,3.63,0,0,0,2.82,1.23,3.22,3.22,0,0,0,.68-.07V16.64a2.55,2.55,0,0,1-.4,0,2,2,0,0,1-1.6-.75A2.91,2.91,0,0,1,57.54,14a2.78,2.78,0,0,1,.62-1.86,2,2,0,0,1,1.6-.74,2.07,2.07,0,0,1,1.64.73A2.86,2.86,0,0,1,62,14h0v4.1h1.9V9.92H62Z"/><path class="cls-1" d="M86,10.87a3.5,3.5,0,0,0-2.57-1.18,3.56,3.56,0,0,0-2.75,1.23A4.44,4.44,0,0,0,79.55,14a4.58,4.58,0,0,0,1.11,3.14,3.63,3.63,0,0,0,2.82,1.23,3.22,3.22,0,0,0,.63-.07V16.64a2.55,2.55,0,0,1-.4,0,2,2,0,0,1-1.6-.75A2.91,2.91,0,0,1,81.49,14a2.78,2.78,0,0,1,.63-1.86,2,2,0,0,1,1.6-.74,2.07,2.07,0,0,1,1.64.73A2.86,2.86,0,0,1,86,14h0v4.1h1.9V9.92H86Z"/><path class="cls-1" d="M94.73,9.69a3.51,3.51,0,0,0-2.57,1.11V9.91h-1.9v12.7h1.9V19.92h0V14h0a2.69,2.69,0,0,1,.63-1.86,2.12,2.12,0,0,1,1.66-.71,2,2,0,0,1,1.6.73,2.77,2.77,0,0,1,.63,1.88A2.63,2.63,0,0,1,96,15.88a2,2,0,0,1-1.59.72h-.39v1.7a3.39,3.39,0,0,0,.69.07,3.56,3.56,0,0,0,2.76-1.17,4.44,4.44,0,0,0,1.13-3.13,4.51,4.51,0,0,0-1.11-3.13A3.55,3.55,0,0,0,94.73,9.69Z"/><path class="cls-1" d="M120.5,14.47h-5.89a2.49,2.49,0,0,0,.66,1.61,2,2,0,0,0,1.49.59,1.94,1.94,0,0,0,1.17-.34,4.8,4.8,0,0,0,1-1.25l1.6.89a6.37,6.37,0,0,1-.78,1.08,4.17,4.17,0,0,1-.89.74,3.55,3.55,0,0,1-1,.43,5,5,0,0,1-1.19.13,3.87,3.87,0,0,1-3-1.18A4.43,4.43,0,0,1,112.56,14a4.55,4.55,0,0,1,1.08-3.15,4.12,4.12,0,0,1,5.75,0,4.54,4.54,0,0,1,1,3.18Zm-1.95-1.55a1.82,1.82,0,0,0-1.91-1.52,2,2,0,0,0-.65.11,1.86,1.86,0,0,0-.55.3,1.92,1.92,0,0,0-.43.48,2.21,2.21,0,0,0-.27.63Z"/><path class="cls-1" d="M127.35,11.32l-1.57.83q-.37-.76-.92-.76a.63.63,0,0,0-.45.17.58.58,0,0,0-.19.44q0,.47,1.1.94a6.54,6.54,0,0,1,2,1.2,2,2,0,0,1,.52,1.48,2.59,2.59,0,0,1-.88,2,3.14,3.14,0,0,1-5-1.26l1.62-.75a3.52,3.52,0,0,0,.51.75,1.17,1.17,0,0,0,.83.32q1,0,1-.88,0-.51-.74-.94l-.57-.28L124,14.3a3.56,3.56,0,0,1-1.16-.81,2,2,0,0,1-.43-1.32,2.34,2.34,0,0,1,.73-1.77A2.57,2.57,0,0,1,125,9.7,2.49,2.49,0,0,1,127.35,11.32Z"/><path class="cls-1" d="M129.3,6.5a1.24,1.24,0,0,1,1.23-1.22,1.19,1.19,0,0,1,.88.36,1.17,1.17,0,0,1,.36.87,1.19,1.19,0,0,1-.36.88,1.17,1.17,0,0,1-.87.36,1.24,1.24,0,0,1-1.24-1.24Zm2.18,3.42v8.21h-1.9V9.92Z"/><path class="cls-1" d="M144.22,9.92h1.94v.76a3.11,3.11,0,0,1,2.24-1,2.83,2.83,0,0,1,2.23.9,3.69,3.69,0,0,1,.69,2.5v5h-1.91V13.54a3,3,0,0,0-.34-1.68,1.36,1.36,0,0,0-1.2-.47,1.46,1.46,0,0,0-1.34.62,4.29,4.29,0,0,0-.39,2.15v4h-1.91Z"/><path class="cls-1" d="M108.9,6.8a5.81,5.81,0,0,0-2.22-1.29,9.94,9.94,0,0,0-3.1-.39h-2.73v13h2v-3.8h0V7h.89a5.43,5.43,0,0,1,3.8,1.19A4.52,4.52,0,0,1,109,11.62,4.47,4.47,0,0,1,106,16a6.08,6.08,0,0,1-1.19.22v1.86a7.83,7.83,0,0,0,1.9-.32A6.33,6.33,0,0,0,111,11.61,6.23,6.23,0,0,0,108.9,6.8Z"/><path class="cls-1" d="M139.93,9.92v.88a3.31,3.31,0,0,0-2.58-1.15A3.49,3.49,0,0,0,134.5,11a4.74,4.74,0,0,0-1,3,4.5,4.5,0,0,0,1.08,3.08A3.68,3.68,0,0,0,138,18.25V16.63h-.36a2,2,0,0,1-1.67-.78,3.35,3.35,0,0,1,0-3.69,2,2,0,0,1,1.67-.8,2.07,2.07,0,0,1,1.63.73,2.77,2.77,0,0,1,.63,1.86h0v3.23h0v1.15q0,2.56-2.08,2.56a2,2,0,0,1-1.72-.77,2.16,2.16,0,0,1-.36-.94h-1.91a3.62,3.62,0,0,0,1.3,2.55,4.09,4.09,0,0,0,2.71.89,3.84,3.84,0,0,0,3.06-1.28,3.47,3.47,0,0,0,.79-1.59,7.12,7.12,0,0,0,.11-.78V10Z"/></g></g></g></svg>