<svg xmlns="http://www.w3.org/2000/svg" viewBox="0 0 800.97 192.44"><defs><style>.cls-1{fill:#317a74;}</style></defs><title>shortLogo</title><g id="Layer_2" data-name="Layer 2"><g id="Layer_1-2" data-name="Layer 1"><path class="cls-1" d="M96.22,0a96.22,96.22,0,1,0,96.22,96.22A96.22,96.22,0,0,0,96.22,0Zm57.43,111.52c0,22.71-23.76,55.5-51.61,55.5h-.18l-.05-18.5c18.25-2.8,30.41-22.53,30.41-22.53h-72s12.16,19.73,30.41,22.53L90.58,167h-.18c-27.84,0-51.61-32.79-51.61-55.5V96.22H76.06l20.16,20.05,20.16-20.05h37.27ZM142,89.35A97.7,97.7,0,0,0,138,63.43L96.22,106,54.46,63.43A97.68,97.68,0,0,0,50.4,89.35l-11.61-.15C38.69,77.93,45,52.07,49,41L96.22,89.64,143.49,41c3.94,11.09,10.27,36.95,10.17,48.23Z"/><path class="cls-1" d="M251.83,117.93c-.09-.09-.2-.16-.29-.26v21.94l-5,12.17,8.73,3.57,5.82-13.89V123.19A12.83,12.83,0,0,1,251.83,117.93Z"/><polygon class="cls-1" points="351.73 55.05 351.73 45.52 304.08 45.52 298.52 38.78 291.11 44.73 299.58 55.05 351.73 55.05"/><polygon class="cls-1" points="341.67 98.59 358.48 83.91 352.25 76.76 337.83 89.33 331.35 73.58 331.35 62.86 295.08 62.86 295.08 72.39 321.82 72.39 321.82 144.38 309.91 144.38 309.91 153.91 331.35 153.91 331.35 98.59 351.2 146.5 359.93 142.93 341.67 98.59"/><polygon class="cls-1" points="313.88 81.26 291.77 81.26 291.77 90.79 304.35 90.79 304.35 93.43 289.79 143.99 298.92 146.5 313.88 94.36 313.88 81.26"/><path class="cls-1" d="M251.54,88.49v29.44c4.21,7.88,5.38,5.4,9.53,5.25V93.91A12.85,12.85,0,0,1,251.54,88.49Z"/><path class="cls-1" d="M251.54,43.14V89.7c7.58,7.58,5.21,4.64,9.53,4.21V52.67h16.14v92.24h-9.53v9.53h19.06V43.14Z"/><path class="cls-1" d="M446,155.9V129.3l-49.1,23.56-4-8.6L446,118.71v-11H407.84V128.5h-9.53V98.2H446V88H391.3V78.48H446V69.21h9.53v9.26h54.66V88H455.48V98.2h47.64v30.3h-9.53V107.73H455.48v11l52.94,25.54-4,8.6-49-23.56v26.6Zm5.56-102H410.62l-9.4,14.56L393,63.13l10.19-15.61V37.45h9.53v6.88h38.78Zm19.72-16.41v6.88H510v9.53H469.11l-9.53,14.56-8.07-5.29L461.7,47.51V37.45Zm15.62,18.66"/><path class="cls-1" d="M561.06,42.31l-7.32-4.84q-5.9,8.38-12,15.58,3.66,2.6,6.37,5Q554.57,50.8,561.06,42.31Z"/><path class="cls-1" d="M601,42.31l-7.32-4.84q-5.9,8.38-12,15.58,3.66,2.6,6.37,5Q594.56,50.8,601,42.31Z"/><path class="cls-1" d="M492.77,58.92l-6-4q-4.84,6.87-9.88,12.78,3,2.13,5.23,4.06Q487.44,65.89,492.77,58.92Z"/><path class="cls-1" d="M435.23,58.92l-6-4q-4.84,6.87-9.88,12.78,3,2.13,5.23,4.06Q429.91,65.89,435.23,58.92Z"/><path class="cls-1" d="M277.08,74.72l-6-4q-4.84,6.87-9.88,12.78,3,2.13,5.23,4.06Q271.76,81.69,277.08,74.72Z"/><path class="cls-1" d="M277.08,106.78l-6-4q-4.84,6.87-9.88,12.78,3,2.13,5.23,4.06Q271.76,113.75,277.08,106.78Z"/><path class="cls-1" d="M600.25,79.74l-7.32-4.84q-5.91,8.38-12,15.58,3.66,2.6,6.37,5Q593.75,88.24,600.25,79.74Z"/><path class="cls-1" d="M561.56,79.23l-7.32-4.84q-5.9,8.38-12,15.58,3.66,2.59,6.37,5Q555.07,87.73,561.56,79.23Z"/><path class="cls-1" d="M569,71.8"/><path class="cls-1" d="M595.49,71.83,600.62,64h-25V37.61h-8.73V64H541.81v7.79h20.84l4.39,0-.11,8.67v15h8.73V82l.1.07a6.92,6.92,0,0,1,0-3.16l-.12.13v-7.2Z"/><path class="cls-1" d="M634.16,123.14c-.28-.21-6.38-10.09-6.42-10q-9.68-17.81-11.8-42.84a32,32,0,0,0,1.3-2.95s22.07,0,22.06.05c.35-.06,9.44,0,9.44-.05h7.44v-8H620.07A204,204,0,0,0,625.85,38l-9.44-1.41q-4.61,28.33-18.3,48a93.13,93.13,0,0,1,5.9,7.55A89.72,89.72,0,0,0,609.21,84q3.07,21.6,12.63,38.12c-.08.1,6.13,9,6.27,9.36A91.44,91.44,0,0,0,651.58,153q2.59-4.14,6.37-9.33A75.68,75.68,0,0,1,634.16,123.14Z"/><path class="cls-1" d="M583.48,132.61a55.82,55.82,0,0,0,13.58-20.3v-7.67H568.14q1.89-3.19,3.78-6.49l-8.5-2.72q-2.48,4.73-5.07,9.21H540.41v7.79h13.45q-3.54,5.78-7.32,11.21,11.09,5.43,21.24,10.62-11.92,7.31-29.15,11.21,2.12,4.5,4,8.27,20.3-5.55,33.63-15.11,7.91,4.13,15.22,8.26l5.2-8.14Q590,135.68,583.48,132.61Zm-8.14-3.78q-8.85-4.13-17.23-7.91,2.72-4.13,5.43-8.49h24.55A50.52,50.52,0,0,1,575.34,128.84Z"/><path class="cls-1" d="M684.14,99.57q8.38-2.3,16.29-4.66v-27H685.55v-8.5h14.87V36.9h8.73V59.44H722v8.5H709.16V92.19q5.61-1.77,11-3.6a74.11,74.11,0,0,0,.71,9.2q-6.08,1.94-11.68,3.83v35.7q0,13.33-11.68,13.58c-2.44.07-6.06,0-10.86-.12q-.48-4.72-1.42-9.79a99,99,0,0,0,9.91.71q5.31,0,5.31-6V104.52q-8.09,2.72-15.1,5.2ZM737,111.48h24.31v-15H733.82q-1.3,36.29-16.76,56.06-2.84-3.66-6.37-7.44,14.75-18.17,14.76-55.82v-46h69.63V77.5h-8.5V73.84H733.94V88.47h27.38V76.08h8.5V88.47H801v8H769.82v15h24.54v39.9h-8.5v-6.85H745.51v6.85H737Zm49.57-60.42H733.94V66h52.64Zm-.71,68.21H745.51v17.59h40.36Z"/><path class="cls-1" d="M647.92,106.81l-7.22-4.91c-3.41,5.92-28.91,41.35-32.56,46.5,2.54,1.84,5,2.82,6.92,4.23C618.93,147.49,644.1,112.87,647.92,106.81Z"/></g></g></svg>